PathFileType	4	(X/Y/Z)	C:/Users/beibeiliu/ov580/test_trc/User3\out9_training_dense_right.trc
DataRate	CameraRate	NumFrames	NumMarkers	Units	OrigDataRate	OrigDataStartFrame	OrigNumFrames
120	120	8	19	mm	120	313	500
Frame#	Time	ThumbCMC			ThumbMCP			ThumbIP			ThumbTip			IndexMCP			IndexPIP			IndexTip			MiddleMCP			MiddlePIP			MiddleTip			RingMCP			RingPIP			RingTip			PinkyMCP			PinkyPIP			PinkyTip			BackHand1			BackHand2			BackHand3	
		X0	Y0	Z0	X1	Y1	Z1	X2	Y2	Z2	X3	Y3	Z3	X4	Y4	Z4	X5	Y5	Z5	X6	Y6	Z6	X7	Y7	Z7	X8	Y8	Z8	X9	Y9	Z9	X10	Y10	Z10	X11	Y11	Z11	X12	Y12	Z12	X13	Y13	Z13	X14	Y14	Z14	X15	Y15	Z15	X16	Y16	Z16	X17	Y17	Z17	X18	Y18	Z18	
312	2.6	114.726	71.3346	84.8717	96.7299	54.1157	59.3217	93.5203	32.5039	33.6206	116.421	13.3644	27.8171	122.683	57.44	11.5839	107.14	31.6436	20.461	112.286	40.9654	50.0622	139.303	43.3135	12.3737	118.884	19.0074	23.6789	124.973	33.608	59.2885	153.749	28.7167	19.9145	135.322	9.89895	32.3177	133.532	25.3166	64.2585	177.403	35.3025	28.3528	173.209	26.2813	8.70631	171.945	14.3531	-14.2029	181.09	65.2821	65.1234	177.434	70.1206	91.5066	150.497	88.1507	73.0236	
313	2.60833	115.818	78.1002	85.4592	89.008	65.4185	64.9874	81.1496	44.2052	41.8243	95.9407	17.6799	32.9509	118.142	58.1161	17.6634	91.6003	41.2896	27.6855	102.894	50.1311	56.3201	128.971	37.7856	16.7975	104.637	22.517	31.8521	115.551	39.6328	65.7225	142.48	25.3359	26.4417	117.671	9.54529	38.9312	120.614	25.1605	69.461	163.12	24.9599	31.233	153.522	17.9292	11.2397	148.835	5.03102	-6.05331	172.228	57.142	62.418	179.526	60.9841	96.6233	153.686	83.5271	75.1811	
314	2.61667	116.128	91.7766	91.2398	89.2206	81.9638	71.0386	75.8499	60.3769	45.8514	80.5614	34.4569	39.3315	106.125	66.505	19.4947	80.4417	56.0893	32.4215	98.3365	61.7941	60.491	114.099	45.8281	20.8518	87.1834	37.1059	40.5978	107.636	45.7948	69.1934	122.622	28.5214	29.6869	97.1968	22.3414	43.8501	106.831	37.8442	74.4595	144.407	24.636	36.7132	132.455	17.1617	16.4939	119.185	10.5324	-1.17405	166.102	48.5763	63.0259	171.044	57.5824	92.7605	153.048	84.3403	75.31	
315	2.625	124.95	98.6841	93.0124	94.4185	100.514	73.3488	74.6131	85.6681	51.7395	66.7325	59.5895	41.5538	104.579	78.7569	23.8083	77.6215	72.4635	36.8431	101.103	77.2122	65.7905	106.432	58.9386	24.4217	78.369	53.7025	44.3025	101.28	63.1816	72.4775	106.358	37.2248	31.8947	83.6402	38.2795	48.298	98.8878	52.2446	78.502	126.956	25.54	34.0017	111.821	23.3971	19.2362	94.8294	15.9227	1.11396	158.169	47.4494	62.4356	166.955	50.8964	94.3688	157.562	82.2321	73.2446	
316	2.63333	135.622	107.182	92.884	107.471	114.156	71.6183	83.9896	112.173	53.5961	68.3846	88.213	41.1351	105.191	96.1718	25.2503	81.3298	96.3989	44.2294	103.321	88.261	66.8111	102.497	74.9118	25.9005	76.5847	76.3143	43.0755	102.337	73.4924	74.929	100.278	54.4339	34.2483	76.8183	57.6301	52.9182	97.6247	63.2631	82.6557	113.646	35.0373	34.9581	101.316	34.0515	23.223	83.0191	31.0916	4.06624	153.755	47.7729	66.2913	165.605	47.7704	95.2787	160.81	83.8177	72.7521	
317	2.64167	145.688	109.976	89.9743	123.859	128.299	68.4533	99.6959	130.578	46.6658	84.0798	113.452	38.6345	114.65	105.555	24.4524	89.0874	112.284	40.737	106.768	103.9	67.6526	103.095	85.2067	24.9117	81.438	91.5648	46.5162	108.073	84.6206	74.5599	104.188	68.1936	34.3542	77.961	76.4253	54.9443	100.192	78.9241	81.1378	108.539	43.5955	36.4928	94.0373	48.0854	22.8738	79.0517	52.8676	6.55854	148.931	46.7407	60.9211	160.825	44.1793	91.4606	163.502	80.683	72.3431	
318	2.65	157.526	109.236	87.0156	143.378	130.064	70.3034	123.499	140.302	44.7397	105.014	139.208	32.0968	123.534	109.232	23.4323	99.2766	121.791	41.2187	116.619	110.896	68.259	108.82	93.1215	24.8242	90.4914	108.479	44.1376	115.383	93.6494	74.6573	103.862	75.738	33.8738	83.7587	93.7724	53.4987	105.722	91.0394	79.77	104.753	52.5579	35.1262	90.072	56.7959	22.2241	78.4915	66.2085	5.03903	147.877	51.9354	61.3812	155.947	45.5525	89.376	165.669	75.1064	71.3181	
319	2.65833	167.368	106.755	89.8042	157.805	126.887	66.1247	150.094	145.578	43.1542	137.878	157.464	27.8211	131.58	108.385	22.8006	109.399	127.708	36.1124	127.029	118.144	66.7754	117.429	97.8215	24.4034	98.4293	115.546	46.6402	120.347	101.159	72.555	104.891	85.5157	31.0209	86.5505	98.5969	51.2662	109.469	93.1513	78.5826	104.171	57.5594	37.1822	90.6806	64.6266	22.4658	80.19	71.7389	5.60618	145.251	50.5859	59.6024	153.474	41.0851	90.7541	168.519	71.8108	71.3213	
